<svg width="337" height="403" viewBox="0 0 337 403" fill="none" xmlns="http://www.w3.org/2000/svg">
<rect width="337" height="240" rx="12" fill="#E0E5EE"/>
<path d="M7.536 262.848V264.032H2.688V267.792H6.624V268.976H2.688V274H1.232V262.848H7.536ZM17.2945 269.28C17.2945 269.557 17.2785 269.851 17.2465 270.16H10.2385C10.2918 271.024 10.5852 271.701 11.1185 272.192C11.6625 272.672 12.3185 272.912 13.0865 272.912C13.7158 272.912 14.2385 272.768 14.6545 272.48C15.0812 272.181 15.3798 271.787 15.5505 271.296H17.1185C16.8838 272.139 16.4145 272.827 15.7105 273.36C15.0065 273.883 14.1318 274.144 13.0865 274.144C12.2545 274.144 11.5078 273.957 10.8465 273.584C10.1958 273.211 9.68383 272.683 9.3105 272C8.93717 271.307 8.7505 270.507 8.7505 269.6C8.7505 268.693 8.93183 267.899 9.2945 267.216C9.65717 266.533 10.1638 266.011 10.8145 265.648C11.4758 265.275 12.2332 265.088 13.0865 265.088C13.9185 265.088 14.6545 265.269 15.2945 265.632C15.9345 265.995 16.4252 266.496 16.7665 267.136C17.1185 267.765 17.2945 268.48 17.2945 269.28ZM15.7905 268.976C15.7905 268.421 15.6678 267.947 15.4225 267.552C15.1772 267.147 14.8412 266.843 14.4145 266.64C13.9985 266.427 13.5345 266.32 13.0225 266.32C12.2865 266.32 11.6572 266.555 11.1345 267.024C10.6225 267.493 10.3292 268.144 10.2545 268.976H15.7905ZM20.6724 266.864C20.971 266.341 21.4084 265.915 21.9844 265.584C22.5604 265.253 23.2164 265.088 23.9524 265.088C24.7417 265.088 25.451 265.275 26.0804 265.648C26.7097 266.021 27.2057 266.549 27.5684 267.232C27.931 267.904 28.1124 268.688 28.1124 269.584C28.1124 270.469 27.931 271.259 27.5684 271.952C27.2057 272.645 26.7044 273.184 26.0644 273.568C25.435 273.952 24.731 274.144 23.9524 274.144C23.195 274.144 22.5284 273.979 21.9524 273.648C21.387 273.317 20.9604 272.896 20.6724 272.384V274H19.2164V262.16H20.6724V266.864ZM26.6244 269.584C26.6244 268.923 26.491 268.347 26.2244 267.856C25.9577 267.365 25.595 266.992 25.1364 266.736C24.6884 266.48 24.1924 266.352 23.6484 266.352C23.115 266.352 22.619 266.485 22.1604 266.752C21.7124 267.008 21.3497 267.387 21.0724 267.888C20.8057 268.379 20.6724 268.949 20.6724 269.6C20.6724 270.261 20.8057 270.843 21.0724 271.344C21.3497 271.835 21.7124 272.213 22.1604 272.48C22.619 272.736 23.115 272.864 23.6484 272.864C24.1924 272.864 24.6884 272.736 25.1364 272.48C25.595 272.213 25.9577 271.835 26.2244 271.344C26.491 270.843 26.6244 270.256 26.6244 269.584ZM33.8785 272.832C35.2332 271.744 36.2945 270.853 37.0625 270.16C37.8305 269.456 38.4758 268.725 38.9985 267.968C39.5318 267.2 39.7985 266.448 39.7985 265.712C39.7985 265.019 39.6278 264.475 39.2865 264.08C38.9558 263.675 38.4172 263.472 37.6705 263.472C36.9452 263.472 36.3798 263.701 35.9745 264.16C35.5798 264.608 35.3665 265.211 35.3345 265.968H33.9265C33.9692 264.773 34.3318 263.851 35.0145 263.2C35.6972 262.549 36.5772 262.224 37.6545 262.224C38.7532 262.224 39.6225 262.528 40.2625 263.136C40.9132 263.744 41.2385 264.581 41.2385 265.648C41.2385 266.533 40.9718 267.397 40.4385 268.24C39.9158 269.072 39.3185 269.808 38.6465 270.448C37.9745 271.077 37.1158 271.813 36.0705 272.656H41.5745V273.872H33.8785V272.832ZM43.2256 265.344C43.3003 264.363 43.679 263.595 44.3616 263.04C45.0443 262.485 45.9296 262.208 47.0176 262.208C47.743 262.208 48.367 262.341 48.8896 262.608C49.423 262.864 49.823 263.216 50.0896 263.664C50.367 264.112 50.5056 264.619 50.5056 265.184C50.5056 265.845 50.3136 266.416 49.9296 266.896C49.5563 267.376 49.0656 267.685 48.4576 267.824V267.904C49.151 268.075 49.7003 268.411 50.1056 268.912C50.511 269.413 50.7136 270.069 50.7136 270.88C50.7136 271.488 50.575 272.037 50.2976 272.528C50.0203 273.008 49.6043 273.387 49.0496 273.664C48.495 273.941 47.8283 274.08 47.0496 274.08C45.919 274.08 44.991 273.787 44.2656 273.2C43.5403 272.603 43.135 271.76 43.0496 270.672H44.4576C44.5323 271.312 44.7936 271.835 45.2416 272.24C45.6896 272.645 46.287 272.848 47.0336 272.848C47.7803 272.848 48.3456 272.656 48.7296 272.272C49.1243 271.877 49.3216 271.371 49.3216 270.752C49.3216 269.952 49.055 269.376 48.5216 269.024C47.9883 268.672 47.183 268.496 46.1056 268.496H45.7376V267.28H46.1216C47.103 267.269 47.8443 267.109 48.3456 266.8C48.847 266.48 49.0976 265.989 49.0976 265.328C49.0976 264.763 48.911 264.309 48.5376 263.968C48.175 263.627 47.6523 263.456 46.9696 263.456C46.3083 263.456 45.775 263.627 45.3696 263.968C44.9643 264.309 44.7243 264.768 44.6496 265.344H43.2256ZM57.6971 269.536C57.4198 269.536 57.1851 269.44 56.9931 269.248C56.8011 269.056 56.7051 268.821 56.7051 268.544C56.7051 268.267 56.8011 268.032 56.9931 267.84C57.1851 267.648 57.4198 267.552 57.6971 267.552C57.9638 267.552 58.1878 267.648 58.3691 267.84C58.5611 268.032 58.6571 268.267 58.6571 268.544C58.6571 268.821 58.5611 269.056 58.3691 269.248C58.1878 269.44 57.9638 269.536 57.6971 269.536ZM66.7134 267.984C66.116 267.749 65.6574 267.408 65.3374 266.96C65.0174 266.512 64.8574 265.968 64.8574 265.328C64.8574 264.752 65.0014 264.235 65.2894 263.776C65.5774 263.307 66.004 262.939 66.5694 262.672C67.1454 262.395 67.8387 262.256 68.6494 262.256C69.46 262.256 70.148 262.395 70.7134 262.672C71.2894 262.939 71.7214 263.307 72.0094 263.776C72.308 264.235 72.4574 264.752 72.4574 265.328C72.4574 265.947 72.292 266.491 71.9614 266.96C71.6307 267.419 71.1774 267.76 70.6014 267.984C71.2627 268.187 71.7854 268.544 72.1694 269.056C72.564 269.557 72.7614 270.165 72.7614 270.88C72.7614 271.573 72.5907 272.181 72.2494 272.704C71.908 273.216 71.4227 273.616 70.7934 273.904C70.1747 274.181 69.46 274.32 68.6494 274.32C67.8387 274.32 67.124 274.181 66.5054 273.904C65.8974 273.616 65.4227 273.216 65.0814 272.704C64.74 272.181 64.5694 271.573 64.5694 270.88C64.5694 270.165 64.7614 269.552 65.1454 269.04C65.5294 268.528 66.052 268.176 66.7134 267.984ZM71.0494 265.504C71.0494 264.853 70.836 264.352 70.4094 264C69.9827 263.648 69.396 263.472 68.6494 263.472C67.9134 263.472 67.332 263.648 66.9054 264C66.4787 264.352 66.2654 264.859 66.2654 265.52C66.2654 266.117 66.484 266.597 66.9214 266.96C67.3694 267.323 67.9454 267.504 68.6494 267.504C69.364 267.504 69.94 267.323 70.3774 266.96C70.8254 266.587 71.0494 266.101 71.0494 265.504ZM68.6494 268.624C67.86 268.624 67.2147 268.811 66.7134 269.184C66.212 269.547 65.9614 270.096 65.9614 270.832C65.9614 271.515 66.2014 272.064 66.6814 272.48C67.172 272.896 67.828 273.104 68.6494 273.104C69.4707 273.104 70.1214 272.896 70.6014 272.48C71.0814 272.064 71.3214 271.515 71.3214 270.832C71.3214 270.117 71.076 269.573 70.5854 269.2C70.0947 268.816 69.4494 268.624 68.6494 268.624ZM89.7448 265.072C90.4274 265.072 91.0354 265.216 91.5688 265.504C92.1021 265.781 92.5234 266.203 92.8328 266.768C93.1421 267.333 93.2968 268.021 93.2968 268.832V274H91.8568V269.04C91.8568 268.165 91.6381 267.499 91.2008 267.04C90.7741 266.571 90.1928 266.336 89.4568 266.336C88.6994 266.336 88.0968 266.581 87.6488 267.072C87.2008 267.552 86.9768 268.251 86.9768 269.168V274H85.5368V269.04C85.5368 268.165 85.3181 267.499 84.8808 267.04C84.4541 266.571 83.8728 266.336 83.1368 266.336C82.3794 266.336 81.7768 266.581 81.3288 267.072C80.8808 267.552 80.6568 268.251 80.6568 269.168V274H79.2008V265.232H80.6568V266.496C80.9448 266.037 81.3288 265.685 81.8088 265.44C82.2994 265.195 82.8381 265.072 83.4248 265.072C84.1608 265.072 84.8114 265.237 85.3768 265.568C85.9421 265.899 86.3634 266.384 86.6408 267.024C86.8861 266.405 87.2914 265.925 87.8568 265.584C88.4221 265.243 89.0514 265.072 89.7448 265.072ZM96.4371 263.808C96.1598 263.808 95.9251 263.712 95.7331 263.52C95.5411 263.328 95.4451 263.093 95.4451 262.816C95.4451 262.539 95.5411 262.304 95.7331 262.112C95.9251 261.92 96.1598 261.824 96.4371 261.824C96.7038 261.824 96.9278 261.92 97.1091 262.112C97.3011 262.304 97.3971 262.539 97.3971 262.816C97.3971 263.093 97.3011 263.328 97.1091 263.52C96.9278 263.712 96.7038 263.808 96.4371 263.808ZM97.1411 265.232V274H95.6851V265.232H97.1411ZM103.895 265.072C104.961 265.072 105.825 265.397 106.487 266.048C107.148 266.688 107.479 267.616 107.479 268.832V274H106.039V269.04C106.039 268.165 105.82 267.499 105.383 267.04C104.945 266.571 104.348 266.336 103.591 266.336C102.823 266.336 102.209 266.576 101.751 267.056C101.303 267.536 101.079 268.235 101.079 269.152V274H99.6226V265.232H101.079V266.48C101.367 266.032 101.756 265.685 102.247 265.44C102.748 265.195 103.297 265.072 103.895 265.072ZM115.579 266.656C115.835 266.155 116.197 265.765 116.667 265.488C117.147 265.211 117.728 265.072 118.411 265.072V266.576H118.027C116.395 266.576 115.579 267.461 115.579 269.232V274H114.123V265.232H115.579V266.656ZM128.091 269.28C128.091 269.557 128.075 269.851 128.043 270.16H121.035C121.089 271.024 121.382 271.701 121.915 272.192C122.459 272.672 123.115 272.912 123.883 272.912C124.513 272.912 125.035 272.768 125.451 272.48C125.878 272.181 126.177 271.787 126.347 271.296H127.915C127.681 272.139 127.211 272.827 126.507 273.36C125.803 273.883 124.929 274.144 123.883 274.144C123.051 274.144 122.305 273.957 121.643 273.584C120.993 273.211 120.481 272.683 120.107 272C119.734 271.307 119.547 270.507 119.547 269.6C119.547 268.693 119.729 267.899 120.091 267.216C120.454 266.533 120.961 266.011 121.611 265.648C122.273 265.275 123.03 265.088 123.883 265.088C124.715 265.088 125.451 265.269 126.091 265.632C126.731 265.995 127.222 266.496 127.563 267.136C127.915 267.765 128.091 268.48 128.091 269.28ZM126.587 268.976C126.587 268.421 126.465 267.947 126.219 267.552C125.974 267.147 125.638 266.843 125.211 266.64C124.795 266.427 124.331 266.32 123.819 266.32C123.083 266.32 122.454 266.555 121.931 267.024C121.419 267.493 121.126 268.144 121.051 268.976H126.587ZM129.469 269.584C129.469 268.688 129.651 267.904 130.013 267.232C130.376 266.549 130.872 266.021 131.501 265.648C132.141 265.275 132.851 265.088 133.629 265.088C134.397 265.088 135.064 265.253 135.629 265.584C136.195 265.915 136.616 266.331 136.893 266.832V265.232H138.365V274H136.893V272.368C136.605 272.88 136.173 273.307 135.597 273.648C135.032 273.979 134.371 274.144 133.613 274.144C132.835 274.144 132.131 273.952 131.501 273.568C130.872 273.184 130.376 272.645 130.013 271.952C129.651 271.259 129.469 270.469 129.469 269.584ZM136.893 269.6C136.893 268.939 136.76 268.363 136.493 267.872C136.227 267.381 135.864 267.008 135.405 266.752C134.957 266.485 134.461 266.352 133.917 266.352C133.373 266.352 132.877 266.48 132.429 266.736C131.981 266.992 131.624 267.365 131.357 267.856C131.091 268.347 130.957 268.923 130.957 269.584C130.957 270.256 131.091 270.843 131.357 271.344C131.624 271.835 131.981 272.213 132.429 272.48C132.877 272.736 133.373 272.864 133.917 272.864C134.461 272.864 134.957 272.736 135.405 272.48C135.864 272.213 136.227 271.835 136.493 271.344C136.76 270.843 136.893 270.261 136.893 269.6ZM140.282 269.584C140.282 268.688 140.463 267.904 140.826 267.232C141.188 266.549 141.684 266.021 142.314 265.648C142.954 265.275 143.668 265.088 144.458 265.088C145.14 265.088 145.775 265.248 146.362 265.568C146.948 265.877 147.396 266.288 147.706 266.8V262.16H149.178V274H147.706V272.352C147.418 272.875 146.991 273.307 146.426 273.648C145.86 273.979 145.199 274.144 144.442 274.144C143.663 274.144 142.954 273.952 142.314 273.568C141.684 273.184 141.188 272.645 140.826 271.952C140.463 271.259 140.282 270.469 140.282 269.584ZM147.706 269.6C147.706 268.939 147.572 268.363 147.306 267.872C147.039 267.381 146.676 267.008 146.218 266.752C145.77 266.485 145.274 266.352 144.73 266.352C144.186 266.352 143.69 266.48 143.242 266.736C142.794 266.992 142.436 267.365 142.17 267.856C141.903 268.347 141.77 268.923 141.77 269.584C141.77 270.256 141.903 270.843 142.17 271.344C142.436 271.835 142.794 272.213 143.242 272.48C143.69 272.736 144.186 272.864 144.73 272.864C145.274 272.864 145.77 272.736 146.218 272.48C146.676 272.213 147.039 271.835 147.306 271.344C147.572 270.843 147.706 270.261 147.706 269.6Z" fill="#ADB8C8"/>
<rect y="262" width="151" height="12" rx="4" fill="#E0E5EE"/>
<rect y="294" width="229" height="23" rx="4" fill="#E0E5EE"/>
<rect y="325" width="337" height="78" rx="4" fill="#E0E5EE"/>
</svg>
